P3
20 240
255
0 0 0
0 0 0
0 0 0
0 0 0
0 0 0
0 0 0
0 0 0
0 0 0
0 0 0
0 0 0
0 0 0
0 0 0
0 0 0
0 0 0
0 0 0
0 0 0
0 0 0
0 0 0
0 0 0
0 0 0
0 0 0
0 0 0
0 0 0
0 0 0
0 0 0
0 0 0
0 0 0
0 0 0
0 0 0
0 0 0
0 0 0
0 0 0
0 0 0
0 0 0
0 0 0
0 0 0
0 0 0
0 0 0
0 0 0
0 0 0
0 0 0
0 0 0
0 0 0
0 0 0
0 0 0
0 0 0
0 0 0
96 100 96
184 184 184
248 252 248
248 252 248
200 204 200
136 136 136
32 32 32
0 0 0
0 0 0
0 0 0
0 0 0
0 0 0
0 0 0
0 0 0
0 0 0
0 0 0
0 0 0
0 0 0
16 16 16
184 184 184
248 252 248
248 252 248
248 252 248
248 252 248
248 252 248
248 252 248
248 252 248
112 116 112
0 0 0
0 0 0
0 0 0
0 0 0
0 0 0
0 0 0
0 0 0
0 0 0
0 0 0
0 0 0
184 184 184
248 252 248
248 252 248
248 252 248
248 252 248
248 252 248
248 252 248
248 252 248
248 252 248
248 252 248
112 116 112
0 0 0
0 0 0
0 0 0
0 0 0
0 0 0
0 0 0
0 0 0
0 0 0
112 116 112
248 252 248
248 252 248
248 252 248
248 252 248
112 116 112
64 68 64
168 168 168
248 252 248
248 252 248
248 252 248
248 252 248
32 32 32
0 0 0
0 0 0
0 0 0
0 0 0
0 0 0
0 0 0
16 16 16
232 236 232
248 252 248
248 252 248
248 252 248
152 152 152
0 0 0
0 0 0
16 16 16
216 220 216
248 252 248
248 252 248
248 252 248
168 168 168
0 0 0
0 0 0
0 0 0
0 0 0
0 0 0
0 0 0
112 116 112
248 252 248
248 252 248
248 252 248
248 252 248
48 48 48
0 0 0
0 0 0
0 0 0
136 136 136
248 252 248
248 252 248
248 252 248
248 252 248
16 16 16
0 0 0
0 0 0
0 0 0
0 0 0
0 0 0
184 184 184
248 252 248
248 252 248
248 252 248
248 252 248
0 0 0
0 0 0
0 0 0
0 0 0
96 100 96
248 252 248
248 252 248
248 252 248
248 252 248
80 84 80
0 0 0
0 0 0
0 0 0
0 0 0
0 0 0
248 252 248
248 252 248
248 252 248
248 252 248
184 184 184
0 0 0
0 0 0
0 0 0
0 0 0
64 68 64
248 252 248
248 252 248
248 252 248
248 252 248
112 116 112
0 0 0
0 0 0
0 0 0
0 0 0
48 48 48
248 252 248
248 252 248
248 252 248
248 252 248
184 184 184
0 0 0
0 0 0
0 0 0
0 0 0
64 68 64
248 252 248
248 252 248
248 252 248
248 252 248
152 152 152
0 0 0
0 0 0
0 0 0
0 0 0
64 68 64
248 252 248
248 252 248
248 252 248
248 252 248
184 184 184
0 0 0
0 0 0
0 0 0
0 0 0
64 68 64
248 252 248
248 252 248
248 252 248
248 252 248
184 184 184
0 0 0
0 0 0
0 0 0
0 0 0
48 48 48
248 252 248
248 252 248
248 252 248
248 252 248
184 184 184
0 0 0
0 0 0
0 0 0
0 0 0
64 68 64
248 252 248
248 252 248
248 252 248
248 252 248
184 184 184
0 0 0
0 0 0
0 0 0
0 0 0
0 0 0
248 252 248
248 252 248
248 252 248
248 252 248
184 184 184
0 0 0
0 0 0
0 0 0
0 0 0
80 84 80
248 252 248
248 252 248
248 252 248
248 252 248
136 136 136
0 0 0
0 0 0
0 0 0
0 0 0
0 0 0
216 220 216
248 252 248
248 252 248
248 252 248
184 184 184
0 0 0
0 0 0
0 0 0
0 0 0
112 116 112
248 252 248
248 252 248
248 252 248
248 252 248
96 100 96
0 0 0
0 0 0
0 0 0
0 0 0
0 0 0
152 152 152
248 252 248
248 252 248
248 252 248
248 252 248
0 0 0
0 0 0
0 0 0
0 0 0
152 152 152
248 252 248
248 252 248
248 252 248
248 252 248
32 32 32
0 0 0
0 0 0
0 0 0
0 0 0
0 0 0
80 84 80
248 252 248
248 252 248
248 252 248
248 252 248
96 100 96
0 0 0
0 0 0
16 16 16
232 236 232
248 252 248
248 252 248
248 252 248
168 168 168
0 0 0
0 0 0
0 0 0
0 0 0
0 0 0
0 0 0
0 0 0
200 204 200
248 252 248
248 252 248
248 252 248
232 236 232
64 68 64
16 16 16
152 152 152
248 252 248
248 252 248
248 252 248
248 252 248
48 48 48
0 0 0
0 0 0
0 0 0
0 0 0
0 0 0
0 0 0
0 0 0
48 48 48
232 236 232
248 252 248
248 252 248
248 252 248
248 252 248
248 252 248
248 252 248
248 252 248
248 252 248
248 252 248
136 136 136
0 0 0
0 0 0
0 0 0
0 0 0
0 0 0
0 0 0
0 0 0
0 0 0
0 0 0
96 100 96
232 236 232
248 252 248
248 252 248
248 252 248
248 252 248
248 252 248
248 252 248
248 252 248
152 152 152
0 0 0
0 0 0
0 0 0
0 0 0
0 0 0
0 0 0
0 0 0
0 0 0
0 0 0
0 0 0
0 0 0
32 32 32
152 152 152
248 252 248
248 252 248
248 252 248
248 252 248
216 220 216
80 84 80
0 0 0
0 0 0
0 0 0
0 0 0
0 0 0
0 0 0
0 0 0
0 0 0
0 0 0
0 0 0
0 0 0
0 0 0
0 0 0
0 0 0
0 0 0
64 68 64
64 68 64
32 32 32
0 0 0
0 0 0
0 0 0
0 0 0
0 0 0
0 0 0
0 0 0
0 0 0
0 0 0
0 0 0
0 0 0
0 0 0
0 0 0
0 0 0
0 0 0
0 0 0
0 0 0
0 0 0
0 0 0
0 0 0
0 0 0
0 0 0
0 0 0
0 0 0
0 0 0
0 0 0
0 0 0
0 0 0
0 0 0
0 0 0
0 0 0
0 0 0
0 0 0
0 0 0
0 0 0
0 0 0
0 0 0
0 0 0
0 0 0
0 0 0
0 0 0
0 0 0
0 0 0
0 0 0
0 0 0
0 0 0
0 0 0
0 0 0
0 0 0
0 0 0
0 0 0
0 0 0
0 0 0
0 0 0
0 0 0
0 0 0
0 0 0
0 0 0
0 0 0
0 0 0
0 0 0
0 0 0
0 0 0
0 0 0
0 0 0
0 0 0
0 0 0
0 0 0
0 0 0
0 0 0
0 0 0
0 0 0
0 0 0
0 0 0
0 0 0
0 0 0
0 0 0
0 0 0
0 0 0
0 0 0
16 16 16
0 0 0
0 0 0
0 0 0
0 0 0
0 0 0
0 0 0
0 0 0
0 0 0
0 0 0
0 0 0
0 0 0
0 0 0
0 0 0
0 0 0
0 0 0
0 0 0
0 0 0
0 0 0
96 100 96
112 116 112
0 0 0
0 0 0
0 0 0
0 0 0
0 0 0
0 0 0
0 0 0
0 0 0
0 0 0
0 0 0
0 0 0
0 0 0
0 0 0
0 0 0
0 0 0
0 0 0
0 0 0
112 116 112
248 252 248
112 116 112
0 0 0
0 0 0
0 0 0
0 0 0
0 0 0
0 0 0
0 0 0
0 0 0
0 0 0
0 0 0
0 0 0
0 0 0
0 0 0
0 0 0
0 0 0
32 32 32
168 168 168
248 252 248
248 252 248
112 116 112
0 0 0
0 0 0
0 0 0
0 0 0
0 0 0
0 0 0
0 0 0
0 0 0
0 0 0
0 0 0
0 0 0
0 0 0
0 0 0
48 48 48
152 152 152
248 252 248
248 252 248
248 252 248
248 252 248
112 116 112
0 0 0
0 0 0
0 0 0
0 0 0
0 0 0
0 0 0
0 0 0
0 0 0
0 0 0
0 0 0
0 0 0
16 16 16
112 116 112
216 220 216
248 252 248
248 252 248
248 252 248
248 252 248
248 252 248
112 116 112
0 0 0
0 0 0
0 0 0
0 0 0
0 0 0
0 0 0
0 0 0
0 0 0
0 0 0
0 0 0
0 0 0
0 0 0
0 0 0
0 0 0
112 116 112
248 252 248
248 252 248
248 252 248
248 252 248
112 116 112
0 0 0
0 0 0
0 0 0
0 0 0
0 0 0
0 0 0
0 0 0
0 0 0
0 0 0
0 0 0
0 0 0
0 0 0
0 0 0
0 0 0
112 116 112
248 252 248
248 252 248
248 252 248
248 252 248
112 116 112
0 0 0
0 0 0
0 0 0
0 0 0
0 0 0
0 0 0
0 0 0
0 0 0
0 0 0
0 0 0
0 0 0
0 0 0
0 0 0
0 0 0
112 116 112
248 252 248
248 252 248
248 252 248
248 252 248
112 116 112
0 0 0
0 0 0
0 0 0
0 0 0
0 0 0
0 0 0
0 0 0
0 0 0
0 0 0
0 0 0
0 0 0
0 0 0
0 0 0
0 0 0
112 116 112
248 252 248
248 252 248
248 252 248
248 252 248
112 116 112
0 0 0
0 0 0
0 0 0
0 0 0
0 0 0
0 0 0
0 0 0
0 0 0
0 0 0
0 0 0
0 0 0
0 0 0
0 0 0
0 0 0
112 116 112
248 252 248
248 252 248
248 252 248
248 252 248
112 116 112
0 0 0
0 0 0
0 0 0
0 0 0
0 0 0
0 0 0
0 0 0
0 0 0
0 0 0
0 0 0
0 0 0
0 0 0
0 0 0
0 0 0
112 116 112
248 252 248
248 252 248
248 252 248
248 252 248
112 116 112
0 0 0
0 0 0
0 0 0
0 0 0
0 0 0
0 0 0
0 0 0
0 0 0
0 0 0
0 0 0
0 0 0
0 0 0
0 0 0
0 0 0
112 116 112
248 252 248
248 252 248
248 252 248
248 252 248
112 116 112
0 0 0
0 0 0
0 0 0
0 0 0
0 0 0
0 0 0
0 0 0
0 0 0
0 0 0
0 0 0
0 0 0
0 0 0
0 0 0
0 0 0
112 116 112
248 252 248
248 252 248
248 252 248
248 252 248
112 116 112
0 0 0
0 0 0
0 0 0
0 0 0
0 0 0
0 0 0
0 0 0
0 0 0
0 0 0
0 0 0
0 0 0
0 0 0
0 0 0
0 0 0
112 116 112
248 252 248
248 252 248
248 252 248
248 252 248
112 116 112
0 0 0
0 0 0
0 0 0
0 0 0
0 0 0
0 0 0
0 0 0
0 0 0
0 0 0
0 0 0
0 0 0
0 0 0
0 0 0
0 0 0
112 116 112
248 252 248
248 252 248
248 252 248
248 252 248
112 116 112
0 0 0
0 0 0
0 0 0
0 0 0
0 0 0
0 0 0
0 0 0
0 0 0
0 0 0
0 0 0
0 0 0
0 0 0
0 0 0
0 0 0
112 116 112
248 252 248
248 252 248
248 252 248
248 252 248
112 116 112
0 0 0
0 0 0
0 0 0
0 0 0
0 0 0
0 0 0
0 0 0
0 0 0
0 0 0
0 0 0
0 0 0
0 0 0
0 0 0
0 0 0
112 116 112
248 252 248
248 252 248
248 252 248
248 252 248
112 116 112
0 0 0
0 0 0
0 0 0
0 0 0
0 0 0
0 0 0
0 0 0
0 0 0
0 0 0
0 0 0
0 0 0
0 0 0
0 0 0
0 0 0
216 220 216
248 252 248
248 252 248
248 252 248
248 252 248
152 152 152
0 0 0
0 0 0
0 0 0
0 0 0
0 0 0
0 0 0
0 0 0
0 0 0
0 0 0
0 0 0
0 0 0
0 0 0
16 16 16
152 152 152
248 252 248
248 252 248
248 252 248
248 252 248
248 252 248
248 252 248
112 116 112
0 0 0
0 0 0
0 0 0
0 0 0
0 0 0
0 0 0
0 0 0
0 0 0
0 0 0
0 0 0
0 0 0
144 144 144
240 244 240
248 252 248
248 252 248
248 252 248
248 252 248
248 252 248
248 252 248
248 252 248
88 88 88
0 0 0
0 0 0
0 0 0
0 0 0
0 0 0
0 0 0
0 0 0
0 0 0
0 0 0
0 0 0
0 0 0
0 0 0
0 0 0
0 0 0
0 0 0
0 0 0
0 0 0
0 0 0
0 0 0
0 0 0
0 0 0
0 0 0
0 0 0
0 0 0
0 0 0
0 0 0
0 0 0
0 0 0
0 0 0
0 0 0
0 0 0
0 0 0
0 0 0
0 0 0
0 0 0
0 0 0
0 0 0
0 0 0
0 0 0
0 0 0
0 0 0
0 0 0
0 0 0
0 0 0
0 0 0
0 0 0
0 0 0
0 0 0
0 0 0
0 0 0
0 0 0
0 0 0
0 0 0
0 0 0
0 0 0
0 0 0
0 0 0
0 0 0
0 0 0
0 0 0
0 0 0
0 0 0
0 0 0
0 0 0
0 0 0
0 0 0
0 0 0
0 0 0
0 0 0
0 0 0
0 0 0
0 0 0
0 0 0
0 0 0
0 0 0
0 0 0
0 0 0
0 0 0
0 0 0
0 0 0
0 0 0
0 0 0
0 0 0
0 0 0
0 0 0
0 0 0
0 0 0
0 0 0
0 0 0
0 0 0
0 0 0
0 0 0
0 0 0
48 48 48
64 68 64
64 68 64
32 32 32
0 0 0
0 0 0
0 0 0
0 0 0
0 0 0
0 0 0
0 0 0
0 0 0
0 0 0
0 0 0
0 0 0
0 0 0
0 0 0
112 116 112
200 204 200
248 252 248
248 252 248
248 252 248
248 252 248
248 252 248
216 220 216
112 116 112
0 0 0
0 0 0
0 0 0
0 0 0
0 0 0
0 0 0
0 0 0
0 0 0
0 0 0
0 0 0
32 32 32
248 252 248
248 252 248
248 252 248
248 252 248
248 252 248
248 252 248
248 252 248
248 252 248
248 252 248
200 204 200
16 16 16
0 0 0
0 0 0
0 0 0
0 0 0
0 0 0
0 0 0
0 0 0
0 0 0
112 116 112
248 252 248
248 252 248
184 184 184
184 184 184
216 220 216
248 252 248
248 252 248
248 252 248
248 252 248
248 252 248
152 152 152
0 0 0
0 0 0
0 0 0
0 0 0
0 0 0
0 0 0
0 0 0
0 0 0
200 204 200
136 136 136
16 16 16
0 0 0
0 0 0
16 16 16
184 184 184
248 252 248
248 252 248
248 252 248
248 252 248
248 252 248
0 0 0
0 0 0
0 0 0
0 0 0
0 0 0
0 0 0
0 0 0
16 16 16
32 32 32
0 0 0
0 0 0
0 0 0
0 0 0
0 0 0
112 116 112
248 252 248
248 252 248
248 252 248
248 252 248
248 252 248
0 0 0
0 0 0
0 0 0
0 0 0
0 0 0
0 0 0
0 0 0
0 0 0
0 0 0
0 0 0
0 0 0
0 0 0
0 0 0
0 0 0
168 168 168
248 252 248
248 252 248
248 252 248
248 252 248
248 252 248
0 0 0
0 0 0
0 0 0
0 0 0
0 0 0
0 0 0
0 0 0
0 0 0
0 0 0
0 0 0
0 0 0
0 0 0
0 0 0
16 16 16
248 252 248
248 252 248
248 252 248
248 252 248
248 252 248
184 184 184
0 0 0
0 0 0
0 0 0
0 0 0
0 0 0
0 0 0
0 0 0
0 0 0
0 0 0
0 0 0
0 0 0
0 0 0
0 0 0
112 116 112
248 252 248
248 252 248
248 252 248
248 252 248
248 252 248
96 100 96
0 0 0
0 0 0
0 0 0
0 0 0
0 0 0
0 0 0
0 0 0
0 0 0
0 0 0
0 0 0
0 0 0
0 0 0
16 16 16
232 236 232
248 252 248
248 252 248
248 252 248
248 252 248
216 220 216
0 0 0
0 0 0
0 0 0
0 0 0
0 0 0
0 0 0
0 0 0
0 0 0
0 0 0
0 0 0
0 0 0
0 0 0
0 0 0
136 136 136
248 252 248
248 252 248
248 252 248
248 252 248
248 252 248
64 68 64
0 0 0
0 0 0
0 0 0
0 0 0
0 0 0
0 0 0
0 0 0
0 0 0
0 0 0
0 0 0
0 0 0
0 0 0
48 48 48
248 252 248
248 252 248
248 252 248
248 252 248
248 252 248
184 184 184
0 0 0
0 0 0
0 0 0
0 0 0
0 0 0
0 0 0
0 0 0
0 0 0
0 0 0
0 0 0
0 0 0
0 0 0
0 0 0
184 184 184
248 252 248
248 252 248
248 252 248
248 252 248
232 236 232
32 32 32
0 0 0
0 0 0
0 0 0
0 0 0
0 0 0
0 0 0
0 0 0
0 0 0
0 0 0
0 0 0
0 0 0
0 0 0
96 100 96
248 252 248
248 252 248
248 252 248
248 252 248
248 252 248
112 116 112
0 0 0
0 0 0
0 0 0
0 0 0
0 0 0
0 0 0
0 0 0
0 0 0
0 0 0
0 0 0
0 0 0
0 0 0
16 16 16
232 236 232
248 252 248
248 252 248
248 252 248
248 252 248
200 204 200
0 0 0
0 0 0
0 0 0
0 0 0
0 0 0
0 0 0
0 0 0
0 0 0
0 0 0
0 0 0
0 0 0
0 0 0
0 0 0
136 136 136
248 252 248
248 252 248
248 252 248
248 252 248
248 252 248
48 48 48
0 0 0
0 0 0
0 0 0
0 0 0
0 0 0
16 16 16
0 0 0
0 0 0
0 0 0
0 0 0
0 0 0
0 0 0
48 48 48
248 252 248
248 252 248
248 252 248
248 252 248
248 252 248
112 116 112
0 0 0
0 0 0
0 0 0
0 0 0
48 48 48
152 152 152
96 100 96
0 0 0
0 0 0
0 0 0
0 0 0
0 0 0
0 0 0
184 184 184
248 252 248
248 252 248
248 252 248
248 252 248
248 252 248
232 236 232
184 184 184
184 184 184
184 184 184
248 252 248
248 252 248
248 252 248
16 16 16
0 0 0
0 0 0
0 0 0
0 0 0
0 0 0
80 84 80
248 252 248
248 252 248
248 252 248
248 252 248
248 252 248
248 252 248
248 252 248
248 252 248
248 252 248
248 252 248
248 252 248
248 252 248
168 168 168
0 0 0
0 0 0
0 0 0
0 0 0
0 0 0
16 16 16
216 220 216
248 252 248
248 252 248
248 252 248
248 252 248
248 252 248
248 252 248
248 252 248
248 252 248
248 252 248
248 252 248
248 252 248
248 252 248
96 100 96
0 0 0
0 0 0
0 0 0
0 0 0
0 0 0
0 0 0
0 0 0
0 0 0
0 0 0
0 0 0
0 0 0
0 0 0
0 0 0
0 0 0
0 0 0
0 0 0
0 0 0
0 0 0
0 0 0
0 0 0
0 0 0
0 0 0
0 0 0
0 0 0
0 0 0
0 0 0
0 0 0
0 0 0
0 0 0
0 0 0
0 0 0
0 0 0
0 0 0
0 0 0
0 0 0
0 0 0
0 0 0
0 0 0
0 0 0
0 0 0
0 0 0
0 0 0
0 0 0
0 0 0
0 0 0
0 0 0
0 0 0
0 0 0
0 0 0
0 0 0
0 0 0
0 0 0
0 0 0
0 0 0
0 0 0
0 0 0
0 0 0
0 0 0
0 0 0
0 0 0
0 0 0
0 0 0
0 0 0
0 0 0
0 0 0
0 0 0
0 0 0
0 0 0
0 0 0
0 0 0
0 0 0
0 0 0
0 0 0
0 0 0
0 0 0
0 0 0
0 0 0
0 0 0
0 0 0
0 0 0
0 0 0
0 0 0
0 0 0
0 0 0
0 0 0
0 0 0
0 0 0
96 100 96
200 204 200
248 252 248
248 252 248
248 252 248
248 252 248
248 252 248
216 220 216
136 136 136
16 16 16
0 0 0
0 0 0
0 0 0
0 0 0
0 0 0
0 0 0
0 0 0
0 0 0
0 0 0
0 0 0
200 204 200
248 252 248
248 252 248
248 252 248
248 252 248
248 252 248
248 252 248
248 252 248
248 252 248
232 236 232
48 48 48
0 0 0
0 0 0
0 0 0
0 0 0
0 0 0
0 0 0
0 0 0
0 0 0
32 32 32
248 252 248
168 168 168
112 116 112
112 116 112
136 136 136
232 236 232
248 252 248
248 252 248
248 252 248
248 252 248
216 220 216
0 0 0
0 0 0
0 0 0
0 0 0
0 0 0
0 0 0
0 0 0
0 0 0
32 32 32
32 32 32
0 0 0
0 0 0
0 0 0
0 0 0
48 48 48
248 252 248
248 252 248
248 252 248
248 252 248
248 252 248
64 68 64
0 0 0
0 0 0
0 0 0
0 0 0
0 0 0
0 0 0
0 0 0
0 0 0
0 0 0
0 0 0
0 0 0
0 0 0
0 0 0
0 0 0
200 204 200
248 252 248
248 252 248
248 252 248
248 252 248
64 68 64
0 0 0
0 0 0
0 0 0
0 0 0
0 0 0
0 0 0
0 0 0
0 0 0
0 0 0
0 0 0
0 0 0
0 0 0
0 0 0
0 0 0
232 236 232
248 252 248
248 252 248
248 252 248
248 252 248
48 48 48
0 0 0
0 0 0
0 0 0
0 0 0
0 0 0
0 0 0
0 0 0
0 0 0
0 0 0
0 0 0
0 0 0
0 0 0
16 16 16
152 152 152
248 252 248
248 252 248
248 252 248
248 252 248
152 152 152
0 0 0
0 0 0
0 0 0
0 0 0
0 0 0
0 0 0
0 0 0
0 0 0
0 0 0
0 0 0
96 100 96
184 184 184
184 184 184
232 236 232
248 252 248
248 252 248
248 252 248
232 236 232
112 116 112
0 0 0
0 0 0
0 0 0
0 0 0
0 0 0
0 0 0
0 0 0
0 0 0
0 0 0
0 0 0
0 0 0
112 116 112
248 252 248
248 252 248
248 252 248
248 252 248
248 252 248
248 252 248
232 236 232
136 136 136
16 16 16
0 0 0
0 0 0
0 0 0
0 0 0
0 0 0
0 0 0
0 0 0
0 0 0
0 0 0
0 0 0
112 116 112
248 252 248
248 252 248
248 252 248
248 252 248
248 252 248
248 252 248
248 252 248
248 252 248
216 220 216
32 32 32
0 0 0
0 0 0
0 0 0
0 0 0
0 0 0
0 0 0
0 0 0
0 0 0
0 0 0
0 0 0
0 0 0
0 0 0
0 0 0
64 68 64
232 236 232
248 252 248
248 252 248
248 252 248
248 252 248
184 184 184
0 0 0
0 0 0
0 0 0
0 0 0
0 0 0
0 0 0
0 0 0
0 0 0
0 0 0
0 0 0
0 0 0
0 0 0
0 0 0
0 0 0
48 48 48
248 252 248
248 252 248
248 252 248
248 252 248
248 252 248
48 48 48
0 0 0
0 0 0
0 0 0
0 0 0
0 0 0
0 0 0
0 0 0
0 0 0
0 0 0
0 0 0
0 0 0
0 0 0
0 0 0
0 0 0
200 204 200
248 252 248
248 252 248
248 252 248
248 252 248
112 116 112
0 0 0
0 0 0
0 0 0
0 0 0
0 0 0
0 0 0
0 0 0
0 0 0
0 0 0
0 0 0
0 0 0
0 0 0
0 0 0
0 0 0
200 204 200
248 252 248
248 252 248
248 252 248
248 252 248
112 116 112
0 0 0
0 0 0
0 0 0
0 0 0
0 0 0
0 0 0
0 0 0
0 0 0
0 0 0
0 0 0
0 0 0
0 0 0
0 0 0
32 32 32
248 252 248
248 252 248
248 252 248
248 252 248
248 252 248
80 84 80
0 0 0
0 0 0
0 0 0
0 0 0
0 0 0
0 0 0
64 68 64
16 16 16
0 0 0
0 0 0
0 0 0
0 0 0
16 16 16
200 204 200
248 252 248
248 252 248
248 252 248
248 252 248
232 236 232
16 16 16
0 0 0
0 0 0
0 0 0
0 0 0
0 0 0
0 0 0
152 152 152
232 236 232
152 152 152
112 116 112
112 116 112
152 152 152
232 236 232
248 252 248
248 252 248
248 252 248
248 252 248
248 252 248
80 84 80
0 0 0
0 0 0
0 0 0
0 0 0
0 0 0
0 0 0
0 0 0
112 116 112
248 252 248
248 252 248
248 252 248
248 252 248
248 252 248
248 252 248
248 252 248
248 252 248
248 252 248
232 236 232
80 84 80
0 0 0
0 0 0
0 0 0
0 0 0
0 0 0
0 0 0
0 0 0
0 0 0
48 48 48
216 220 216
248 252 248
248 252 248
248 252 248
248 252 248
248 252 248
248 252 248
200 204 200
112 116 112
16 16 16
0 0 0
0 0 0
0 0 0
0 0 0
0 0 0
0 0 0
0 0 0
0 0 0
0 0 0
0 0 0
0 0 0
16 16 16
64 68 64
64 68 64
64 68 64
64 68 64
0 0 0
0 0 0
0 0 0
0 0 0
0 0 0
0 0 0
0 0 0
0 0 0
0 0 0
0 0 0
0 0 0
0 0 0
0 0 0
0 0 0
0 0 0
0 0 0
0 0 0
0 0 0
0 0 0
0 0 0
0 0 0
0 0 0
0 0 0
0 0 0
0 0 0
0 0 0
0 0 0
0 0 0
0 0 0
0 0 0
0 0 0
0 0 0
0 0 0
0 0 0
0 0 0
0 0 0
0 0 0
0 0 0
0 0 0
0 0 0
0 0 0
0 0 0
0 0 0
0 0 0
0 0 0
0 0 0
0 0 0
0 0 0
0 0 0
0 0 0
0 0 0
0 0 0
0 0 0
0 0 0
0 0 0
0 0 0
0 0 0
0 0 0
0 0 0
0 0 0
0 0 0
0 0 0
0 0 0
0 0 0
0 0 0
0 0 0
0 0 0
0 0 0
0 0 0
0 0 0
0 0 0
0 0 0
0 0 0
0 0 0
0 0 0
0 0 0
0 0 0
0 0 0
0 0 0
0 0 0
0 0 0
0 0 0
0 0 0
0 0 0
0 0 0
0 0 0
0 0 0
0 0 0
0 0 0
0 0 0
0 0 0
0 0 0
0 0 0
0 0 0
0 0 0
0 0 0
0 0 0
0 0 0
112 116 112
248 252 248
248 252 248
248 252 248
248 252 248
248 252 248
112 116 112
0 0 0
0 0 0
0 0 0
0 0 0
0 0 0
0 0 0
0 0 0
0 0 0
0 0 0
0 0 0
0 0 0
0 0 0
32 32 32
248 252 248
248 252 248
248 252 248
248 252 248
248 252 248
248 252 248
112 116 112
0 0 0
0 0 0
0 0 0
0 0 0
0 0 0
0 0 0
0 0 0
0 0 0
0 0 0
0 0 0
0 0 0
0 0 0
152 152 152
248 252 248
248 252 248
248 252 248
248 252 248
248 252 248
248 252 248
112 116 112
0 0 0
0 0 0
0 0 0
0 0 0
0 0 0
0 0 0
0 0 0
0 0 0
0 0 0
0 0 0
0 0 0
32 32 32
248 252 248
248 252 248
248 252 248
248 252 248
248 252 248
248 252 248
248 252 248
112 116 112
0 0 0
0 0 0
0 0 0
0 0 0
0 0 0
0 0 0
0 0 0
0 0 0
0 0 0
0 0 0
0 0 0
168 168 168
248 252 248
232 236 232
152 152 152
248 252 248
248 252 248
248 252 248
248 252 248
112 116 112
0 0 0
0 0 0
0 0 0
0 0 0
0 0 0
0 0 0
0 0 0
0 0 0
0 0 0
0 0 0
64 68 64
248 252 248
248 252 248
112 116 112
112 116 112
248 252 248
248 252 248
248 252 248
248 252 248
112 116 112
0 0 0
0 0 0
0 0 0
0 0 0
0 0 0
0 0 0
0 0 0
0 0 0
0 0 0
0 0 0
184 184 184
248 252 248
232 236 232
16 16 16
112 116 112
248 252 248
248 252 248
248 252 248
248 252 248
112 116 112
0 0 0
0 0 0
0 0 0
0 0 0
0 0 0
0 0 0
0 0 0
0 0 0
0 0 0
64 68 64
248 252 248
248 252 248
112 116 112
0 0 0
112 116 112
248 252 248
248 252 248
248 252 248
248 252 248
112 116 112
0 0 0
0 0 0
0 0 0
0 0 0
0 0 0
0 0 0
0 0 0
0 0 0
0 0 0
184 184 184
248 252 248
232 236 232
16 16 16
0 0 0
112 116 112
248 252 248
248 252 248
248 252 248
248 252 248
112 116 112
0 0 0
0 0 0
0 0 0
0 0 0
0 0 0
0 0 0
0 0 0
0 0 0
96 100 96
248 252 248
248 252 248
112 116 112
0 0 0
0 0 0
112 116 112
248 252 248
248 252 248
248 252 248
248 252 248
112 116 112
0 0 0
0 0 0
0 0 0
0 0 0
0 0 0
0 0 0
0 0 0
0 0 0
216 220 216
248 252 248
216 220 216
16 16 16
0 0 0
0 0 0
112 116 112
248 252 248
248 252 248
248 252 248
248 252 248
112 116 112
0 0 0
0 0 0
0 0 0
0 0 0
0 0 0
0 0 0
0 0 0
96 100 96
248 252 248
248 252 248
96 100 96
0 0 0
0 0 0
0 0 0
112 116 112
248 252 248
248 252 248
248 252 248
248 252 248
112 116 112
0 0 0
0 0 0
32 32 32
24 28 24
0 0 0
0 0 0
0 0 0
216 220 216
248 252 248
248 252 248
112 116 112
112 116 112
112 116 112
112 116 112
184 184 184
248 252 248
248 252 248
248 252 248
248 252 248
184 184 184
112 116 112
168 168 168
152 152 152
136 140 136
0 0 0
0 0 0
112 116 112
248 252 248
248 252 248
248 252 248
248 252 248
248 252 248
248 252 248
248 252 248
248 252 248
248 252 248
248 252 248
248 252 248
248 252 248
248 252 248
248 252 248
248 252 248
248 248 248
72 72 72
0 0 0
16 16 16
232 236 232
248 252 248
248 252 248
248 252 248
248 252 248
248 252 248
248 252 248
248 252 248
248 252 248
248 252 248
248 252 248
248 252 248
248 252 248
248 252 248
248 252 248
248 248 248
240 240 240
0 0 0
0 0 0
0 0 0
0 0 0
0 0 0
0 0 0
0 0 0
0 0 0
0 0 0
0 0 0
0 0 0
112 116 112
248 252 248
248 252 248
248 252 248
248 252 248
112 116 112
0 0 0
0 0 0
0 0 0
0 0 0
0 0 0
0 0 0
0 0 0
0 0 0
0 0 0
0 0 0
0 0 0
0 0 0
0 0 0
0 0 0
112 116 112
248 252 248
248 252 248
248 252 248
248 252 248
112 116 112
0 0 0
0 0 0
0 0 0
0 0 0
0 0 0
0 0 0
0 0 0
0 0 0
0 0 0
0 0 0
0 0 0
0 0 0
0 0 0
0 0 0
152 152 152
248 252 248
248 252 248
248 252 248
248 252 248
152 152 152
0 0 0
0 0 0
0 0 0
0 0 0
0 0 0
0 0 0
0 0 0
0 0 0
0 0 0
0 0 0
0 0 0
0 0 0
0 0 0
80 84 80
248 252 248
248 252 248
248 252 248
248 252 248
248 252 248
248 252 248
80 84 80
0 0 0
0 0 0
0 0 0
0 0 0
0 0 0
0 0 0
0 0 0
0 0 0
0 0 0
0 0 0
0 0 0
72 72 72
248 252 248
248 252 248
248 252 248
248 252 248
248 252 248
248 252 248
248 252 248
248 252 248
72 72 72
0 0 0
0 0 0
0 0 0
0 0 0
0 0 0
0 0 0
0 0 0
0 0 0
0 0 0
0 0 0
0 0 0
0 0 0
0 0 0
0 0 0
0 0 0
0 0 0
0 0 0
0 0 0
0 0 0
0 0 0
0 0 0
0 0 0
0 0 0
0 0 0
0 0 0
0 0 0
0 0 0
0 0 0
0 0 0
0 0 0
0 0 0
0 0 0
0 0 0
0 0 0
0 0 0
0 0 0
0 0 0
0 0 0
0 0 0
0 0 0
0 0 0
0 0 0
0 0 0
0 0 0
0 0 0
0 0 0
0 0 0
0 0 0
0 0 0
0 0 0
0 0 0
0 0 0
0 0 0
0 0 0
0 0 0
0 0 0
0 0 0
0 0 0
0 0 0
0 0 0
0 0 0
0 0 0
0 0 0
0 0 0
0 0 0
0 0 0
0 0 0
0 0 0
0 0 0
0 0 0
0 0 0
0 0 0
0 0 0
0 0 0
0 0 0
0 0 0
0 0 0
0 0 0
0 0 0
0 0 0
0 0 0
0 0 0
0 0 0
0 0 0
0 0 0
0 0 0
0 0 0
184 184 184
248 252 248
248 252 248
248 252 248
248 252 248
248 252 248
248 252 248
248 252 248
248 252 248
248 252 248
248 252 248
112 116 112
0 0 0
0 0 0
0 0 0
0 0 0
0 0 0
0 0 0
0 0 0
0 0 0
184 184 184
248 252 248
248 252 248
248 252 248
248 252 248
248 252 248
248 252 248
248 252 248
248 252 248
248 252 248
248 252 248
112 116 112
0 0 0
0 0 0
0 0 0
0 0 0
0 0 0
0 0 0
0 0 0
0 0 0
184 184 184
248 252 248
248 252 248
248 252 248
248 252 248
248 252 248
248 252 248
248 252 248
248 252 248
248 252 248
248 252 248
80 84 80
0 0 0
0 0 0
0 0 0
0 0 0
0 0 0
0 0 0
0 0 0
0 0 0
248 252 248
248 252 248
248 252 248
248 252 248
112 116 112
0 0 0
0 0 0
0 0 0
0 0 0
48 48 48
112 116 112
64 68 64
0 0 0
0 0 0
0 0 0
0 0 0
0 0 0
0 0 0
0 0 0
0 0 0
248 252 248
248 252 248
248 252 248
248 252 248
112 116 112
0 0 0
0 0 0
0 0 0
0 0 0
0 0 0
0 0 0
0 0 0
0 0 0
0 0 0
0 0 0
0 0 0
0 0 0
0 0 0
0 0 0
0 0 0
248 252 248
248 252 248
248 252 248
248 252 248
112 116 112
0 0 0
0 0 0
0 0 0
0 0 0
0 0 0
0 0 0
0 0 0
0 0 0
0 0 0
0 0 0
0 0 0
0 0 0
0 0 0
0 0 0
0 0 0
248 252 248
248 252 248
248 252 248
248 252 248
152 152 152
112 116 112
112 116 112
96 100 96
32 32 32
0 0 0
0 0 0
0 0 0
0 0 0
0 0 0
0 0 0
0 0 0
0 0 0
0 0 0
0 0 0
0 0 0
248 252 248
248 252 248
248 252 248
248 252 248
248 252 248
248 252 248
248 252 248
248 252 248
248 252 248
184 184 184
48 48 48
0 0 0
0 0 0
0 0 0
0 0 0
0 0 0
0 0 0
0 0 0
0 0 0
48 48 48
248 252 248
248 252 248
248 252 248
248 252 248
248 252 248
248 252 248
248 252 248
248 252 248
248 252 248
248 252 248
232 236 232
64 68 64
0 0 0
0 0 0
0 0 0
0 0 0
0 0 0
0 0 0
0 0 0
48 48 48
112 116 112
64 68 64
64 68 64
64 68 64
80 84 80
168 168 168
248 252 248
248 252 248
248 252 248
248 252 248
248 252 248
232 236 232
32 32 32
0 0 0
0 0 0
0 0 0
0 0 0
0 0 0
0 0 0
0 0 0
0 0 0
0 0 0
0 0 0
0 0 0
0 0 0
0 0 0
96 100 96
248 252 248
248 252 248
248 252 248
248 252 248
248 252 248
136 136 136
0 0 0
0 0 0
0 0 0
0 0 0
0 0 0
0 0 0
0 0 0
0 0 0
0 0 0
0 0 0
0 0 0
0 0 0
0 0 0
0 0 0
168 168 168
248 252 248
248 252 248
248 252 248
248 252 248
216 220 216
0 0 0
0 0 0
0 0 0
0 0 0
0 0 0
0 0 0
0 0 0
0 0 0
0 0 0
0 0 0
0 0 0
0 0 0
0 0 0
0 0 0
112 116 112
248 252 248
248 252 248
248 252 248
248 252 248
248 252 248
0 0 0
0 0 0
0 0 0
0 0 0
0 0 0
0 0 0
0 0 0
0 0 0
0 0 0
0 0 0
0 0 0
0 0 0
0 0 0
0 0 0
112 116 112
248 252 248
248 252 248
248 252 248
248 252 248
232 236 232
0 0 0
0 0 0
0 0 0
0 0 0
0 0 0
0 0 0
0 0 0
0 0 0
0 0 0
0 0 0
0 0 0
0 0 0
0 0 0
0 0 0
200 204 200
248 252 248
248 252 248
248 252 248
248 252 248
168 168 168
0 0 0
0 0 0
0 0 0
0 0 0
0 0 0
0 0 0
64 68 64
0 0 0
0 0 0
0 0 0
0 0 0
0 0 0
0 0 0
96 100 96
248 252 248
248 252 248
248 252 248
248 252 248
248 252 248
64 68 64
0 0 0
0 0 0
0 0 0
0 0 0
0 0 0
0 0 0
112 116 112
232 236 232
136 136 136
80 84 80
64 68 64
64 68 64
152 152 152
248 252 248
248 252 248
248 252 248
248 252 248
248 252 248
152 152 152
0 0 0
0 0 0
0 0 0
0 0 0
0 0 0
0 0 0
0 0 0
48 48 48
248 252 248
248 252 248
248 252 248
248 252 248
248 252 248
248 252 248
248 252 248
248 252 248
248 252 248
248 252 248
136 136 136
0 0 0
0 0 0
0 0 0
0 0 0
0 0 0
0 0 0
0 0 0
0 0 0
0 0 0
216 220 216
248 252 248
248 252 248
248 252 248
248 252 248
248 252 248
248 252 248
248 252 248
184 184 184
64 68 64
0 0 0
0 0 0
0 0 0
0 0 0
0 0 0
0 0 0
0 0 0
0 0 0
0 0 0
0 0 0
0 0 0
0 0 0
32 32 32
64 68 64
112 116 112
112 116 112
64 68 64
32 32 32
0 0 0
0 0 0
0 0 0
0 0 0
0 0 0
0 0 0
0 0 0
0 0 0
0 0 0
0 0 0
0 0 0
0 0 0
0 0 0
0 0 0
0 0 0
0 0 0
0 0 0
0 0 0
0 0 0
0 0 0
0 0 0
0 0 0
0 0 0
0 0 0
0 0 0
0 0 0
0 0 0
0 0 0
0 0 0
0 0 0
0 0 0
0 0 0
0 0 0
0 0 0
0 0 0
0 0 0
0 0 0
0 0 0
0 0 0
0 0 0
0 0 0
0 0 0
0 0 0
0 0 0
0 0 0
0 0 0
0 0 0
0 0 0
0 0 0
0 0 0
0 0 0
0 0 0
0 0 0
0 0 0
0 0 0
0 0 0
0 0 0
0 0 0
0 0 0
0 0 0
0 0 0
0 0 0
0 0 0
0 0 0
0 0 0
0 0 0
0 0 0
0 0 0
0 0 0
0 0 0
0 0 0
0 0 0
0 0 0
0 0 0
0 0 0
0 0 0
0 0 0
0 0 0
0 0 0
0 0 0
0 0 0
0 0 0
16 16 16
0 0 0
16 16 16
0 0 0
0 0 0
0 0 0
0 0 0
0 0 0
0 0 0
0 0 0
0 0 0
0 0 0
0 0 0
0 0 0
0 0 0
0 0 0
32 32 32
112 116 112
184 184 184
248 252 248
248 252 248
216 220 216
0 0 0
0 0 0
0 0 0
0 0 0
0 0 0
0 0 0
0 0 0
0 0 0
0 0 0
0 0 0
0 0 0
0 0 0
32 32 32
152 152 152
248 252 248
248 252 248
248 252 248
248 252 248
248 252 248
112 116 112
0 0 0
0 0 0
0 0 0
0 0 0
0 0 0
0 0 0
0 0 0
0 0 0
0 0 0
0 0 0
0 0 0
96 100 96
232 236 232
248 252 248
248 252 248
248 252 248
248 252 248
152 152 152
80 84 80
16 16 16
0 0 0
0 0 0
0 0 0
0 0 0
0 0 0
0 0 0
0 0 0
0 0 0
0 0 0
0 0 0
152 152 152
248 252 248
248 252 248
248 252 248
248 252 248
200 204 200
32 32 32
0 0 0
0 0 0
0 0 0
0 0 0
0 0 0
0 0 0
0 0 0
0 0 0
0 0 0
0 0 0
0 0 0
0 0 0
136 136 136
248 252 248
248 252 248
248 252 248
248 252 248
152 152 152
0 0 0
0 0 0
0 0 0
0 0 0
0 0 0
0 0 0
0 0 0
0 0 0
0 0 0
0 0 0
0 0 0
0 0 0
0 0 0
80 84 80
248 252 248
248 252 248
248 252 248
248 252 248
200 204 200
0 0 0
0 0 0
0 0 0
0 0 0
0 0 0
0 0 0
0 0 0
0 0 0
0 0 0
0 0 0
0 0 0
0 0 0
0 0 0
16 16 16
232 236 232
248 252 248
248 252 248
248 252 248
248 252 248
32 32 32
16 16 16
112 116 112
112 116 112
64 68 64
0 0 0
0 0 0
0 0 0
0 0 0
0 0 0
0 0 0
0 0 0
0 0 0
0 0 0
112 116 112
248 252 248
248 252 248
248 252 248
248 252 248
152 152 152
0 0 0
184 184 184
248 252 248
248 252 248
248 252 248
216 220 216
80 84 80
0 0 0
0 0 0
0 0 0
0 0 0
0 0 0
0 0 0
0 0 0
200 204 200
248 252 248
248 252 248
248 252 248
248 252 248
48 48 48
112 116 112
248 252 248
248 252 248
248 252 248
248 252 248
248 252 248
248 252 248
80 84 80
0 0 0
0 0 0
0 0 0
0 0 0
0 0 0
0 0 0
248 252 248
248 252 248
248 252 248
248 252 248
248 252 248
0 0 0
16 16 16
16 16 16
152 152 152
248 252 248
248 252 248
248 252 248
248 252 248
232 236 232
16 16 16
0 0 0
0 0 0
0 0 0
0 0 0
64 68 64
248 252 248
248 252 248
248 252 248
248 252 248
200 204 200
0 0 0
0 0 0
0 0 0
0 0 0
184 184 184
248 252 248
248 252 248
248 252 248
248 252 248
112 116 112
0 0 0
0 0 0
0 0 0
0 0 0
64 68 64
248 252 248
248 252 248
248 252 248
248 252 248
184 184 184
0 0 0
0 0 0
0 0 0
0 0 0
112 116 112
248 252 248
248 252 248
248 252 248
248 252 248
152 152 152
0 0 0
0 0 0
0 0 0
0 0 0
16 16 16
248 252 248
248 252 248
248 252 248
248 252 248
200 204 200
0 0 0
0 0 0
0 0 0
0 0 0
64 68 64
248 252 248
248 252 248
248 252 248
248 252 248
184 184 184
0 0 0
0 0 0
0 0 0
0 0 0
0 0 0
232 236 232
248 252 248
248 252 248
248 252 248
248 252 248
0 0 0
0 0 0
0 0 0
0 0 0
64 68 64
248 252 248
248 252 248
248 252 248
248 252 248
152 152 152
0 0 0
0 0 0
0 0 0
0 0 0
0 0 0
168 168 168
248 252 248
248 252 248
248 252 248
248 252 248
32 32 32
0 0 0
0 0 0
0 0 0
112 116 112
248 252 248
248 252 248
248 252 248
248 252 248
96 100 96
0 0 0
0 0 0
0 0 0
0 0 0
0 0 0
64 68 64
248 252 248
248 252 248
248 252 248
248 252 248
152 152 152
0 0 0
0 0 0
0 0 0
216 220 216
248 252 248
248 252 248
248 252 248
232 236 232
16 16 16
0 0 0
0 0 0
0 0 0
0 0 0
0 0 0
0 0 0
168 168 168
248 252 248
248 252 248
248 252 248
248 252 248
152 152 152
112 116 112
168 168 168
248 252 248
248 252 248
248 252 248
248 252 248
96 100 96
0 0 0
0 0 0
0 0 0
0 0 0
0 0 0
0 0 0
0 0 0
16 16 16
200 204 200
248 252 248
248 252 248
248 252 248
248 252 248
248 252 248
248 252 248
248 252 248
248 252 248
248 252 248
136 136 136
0 0 0
0 0 0
0 0 0
0 0 0
0 0 0
0 0 0
0 0 0
0 0 0
0 0 0
0 0 0
112 116 112
232 236 232
248 252 248
248 252 248
248 252 248
248 252 248
248 252 248
216 220 216
80 84 80
0 0 0
0 0 0
0 0 0
0 0 0
0 0 0
0 0 0
0 0 0
0 0 0
0 0 0
0 0 0
0 0 0
0 0 0
0 0 0
64 68 64
112 116 112
112 116 112
96 100 96
32 32 32
0 0 0
0 0 0
0 0 0
0 0 0
0 0 0
0 0 0
0 0 0
0 0 0
0 0 0
0 0 0
0 0 0
0 0 0
0 0 0
0 0 0
0 0 0
0 0 0
0 0 0
0 0 0
0 0 0
0 0 0
0 0 0
0 0 0
0 0 0
0 0 0
0 0 0
0 0 0
0 0 0
0 0 0
0 0 0
0 0 0
0 0 0
0 0 0
0 0 0
0 0 0
0 0 0
0 0 0
0 0 0
0 0 0
0 0 0
0 0 0
0 0 0
0 0 0
0 0 0
0 0 0
0 0 0
0 0 0
0 0 0
0 0 0
0 0 0
0 0 0
0 0 0
0 0 0
0 0 0
0 0 0
0 0 0
0 0 0
0 0 0
0 0 0
0 0 0
0 0 0
0 0 0
0 0 0
0 0 0
0 0 0
0 0 0
0 0 0
0 0 0
0 0 0
0 0 0
0 0 0
0 0 0
0 0 0
0 0 0
0 0 0
0 0 0
0 0 0
0 0 0
0 0 0
0 0 0
0 0 0
0 0 0
0 0 0
0 0 0
0 0 0
0 0 0
0 0 0
0 0 0
0 0 0
0 0 0
0 0 0
0 0 0
0 0 0
136 136 136
184 184 184
184 184 184
184 184 184
184 184 184
184 184 184
184 184 184
184 184 184
184 184 184
184 184 184
184 184 184
16 16 16
0 0 0
0 0 0
0 0 0
0 0 0
0 0 0
0 0 0
0 0 0
0 0 0
232 236 232
248 252 248
248 252 248
248 252 248
248 252 248
248 252 248
248 252 248
248 252 248
248 252 248
248 252 248
200 204 200
0 0 0
0 0 0
0 0 0
0 0 0
0 0 0
0 0 0
0 0 0
0 0 0
64 68 64
248 252 248
248 252 248
248 252 248
248 252 248
248 252 248
248 252 248
248 252 248
248 252 248
248 252 248
248 252 248
112 116 112
0 0 0
0 0 0
0 0 0
0 0 0
0 0 0
0 0 0
0 0 0
0 0 0
112 116 112
112 116 112
64 68 64
0 0 0
0 0 0
0 0 0
64 68 64
248 252 248
248 252 248
248 252 248
248 252 248
48 48 48
0 0 0
0 0 0
0 0 0
0 0 0
0 0 0
0 0 0
0 0 0
0 0 0
16 16 16
0 0 0
0 0 0
0 0 0
0 0 0
0 0 0
64 68 64
248 252 248
248 252 248
248 252 248
216 220 216
0 0 0
0 0 0
0 0 0
0 0 0
0 0 0
0 0 0
0 0 0
0 0 0
0 0 0
0 0 0
0 0 0
0 0 0
0 0 0
0 0 0
0 0 0
136 136 136
248 252 248
248 252 248
248 252 248
136 136 136
0 0 0
0 0 0
0 0 0
0 0 0
0 0 0
0 0 0
0 0 0
0 0 0
0 0 0
0 0 0
0 0 0
0 0 0
0 0 0
0 0 0
0 0 0
216 220 216
248 252 248
248 252 248
248 252 248
80 84 80
0 0 0
0 0 0
0 0 0
0 0 0
0 0 0
0 0 0
0 0 0
0 0 0
0 0 0
0 0 0
0 0 0
0 0 0
0 0 0
0 0 0
48 48 48
248 252 248
248 252 248
248 252 248
232 236 232
0 0 0
0 0 0
0 0 0
0 0 0
0 0 0
0 0 0
0 0 0
0 0 0
0 0 0
0 0 0
0 0 0
0 0 0
0 0 0
0 0 0
0 0 0
136 136 136
248 252 248
248 252 248
248 252 248
168 168 168
0 0 0
0 0 0
0 0 0
0 0 0
0 0 0
0 0 0
0 0 0
0 0 0
0 0 0
0 0 0
0 0 0
0 0 0
0 0 0
0 0 0
0 0 0
216 220 216
248 252 248
248 252 248
248 252 248
96 100 96
0 0 0
0 0 0
0 0 0
0 0 0
0 0 0
0 0 0
0 0 0
0 0 0
0 0 0
0 0 0
0 0 0
0 0 0
0 0 0
0 0 0
48 48 48
248 252 248
248 252 248
248 252 248
248 252 248
16 16 16
0 0 0
0 0 0
0 0 0
0 0 0
0 0 0
0 0 0
0 0 0
0 0 0
0 0 0
0 0 0
0 0 0
0 0 0
0 0 0
0 0 0
136 136 136
248 252 248
248 252 248
248 252 248
200 204 200
0 0 0
0 0 0
0 0 0
0 0 0
0 0 0
0 0 0
0 0 0
0 0 0
0 0 0
0 0 0
0 0 0
0 0 0
0 0 0
0 0 0
0 0 0
216 220 216
248 252 248
248 252 248
248 252 248
112 116 112
0 0 0
0 0 0
0 0 0
0 0 0
0 0 0
0 0 0
0 0 0
0 0 0
0 0 0
0 0 0
0 0 0
0 0 0
0 0 0
0 0 0
48 48 48
248 252 248
248 252 248
248 252 248
248 252 248
48 48 48
0 0 0
0 0 0
0 0 0
0 0 0
0 0 0
0 0 0
0 0 0
0 0 0
0 0 0
0 0 0
0 0 0
0 0 0
0 0 0
0 0 0
136 136 136
248 252 248
248 252 248
248 252 248
216 220 216
0 0 0
0 0 0
0 0 0
0 0 0
0 0 0
0 0 0
0 0 0
0 0 0
0 0 0
0 0 0
0 0 0
0 0 0
0 0 0
0 0 0
0 0 0
216 220 216
248 252 248
248 252 248
248 252 248
136 136 136
0 0 0
0 0 0
0 0 0
0 0 0
0 0 0
0 0 0
0 0 0
0 0 0
0 0 0
0 0 0
0 0 0
0 0 0
0 0 0
0 0 0
48 48 48
248 252 248
248 252 248
248 252 248
248 252 248
80 84 80
0 0 0
0 0 0
0 0 0
0 0 0
0 0 0
0 0 0
0 0 0
0 0 0
0 0 0
0 0 0
0 0 0
0 0 0
0 0 0
0 0 0
136 136 136
248 252 248
248 252 248
248 252 248
248 252 248
64 68 64
0 0 0
0 0 0
0 0 0
0 0 0
0 0 0
0 0 0
0 0 0
0 0 0
0 0 0
0 0 0
0 0 0
0 0 0
0 0 0
0 0 0
216 220 216
248 252 248
248 252 248
248 252 248
248 252 248
64 68 64
0 0 0
0 0 0
0 0 0
0 0 0
0 0 0
0 0 0
0 0 0
0 0 0
0 0 0
0 0 0
0 0 0
0 0 0
0 0 0
184 184 184
248 252 248
248 252 248
248 252 248
248 252 248
120 120 120
0 0 0
0 0 0
0 0 0
0 0 0
0 0 0
0 0 0
0 0 0
0 0 0
0 0 0
0 0 0
0 0 0
0 0 0
0 0 0
0 0 0
0 0 0
0 0 0
0 0 0
0 0 0
0 0 0
0 0 0
0 0 0
0 0 0
0 0 0
0 0 0
0 0 0
0 0 0
0 0 0
0 0 0
0 0 0
0 0 0
0 0 0
0 0 0
0 0 0
0 0 0
0 0 0
0 0 0
0 0 0
0 0 0
0 0 0
0 0 0
0 0 0
0 0 0
0 0 0
0 0 0
0 0 0
0 0 0
0 0 0
0 0 0
0 0 0
0 0 0
0 0 0
0 0 0
0 0 0
0 0 0
0 0 0
0 0 0
0 0 0
0 0 0
0 0 0
0 0 0
0 0 0
0 0 0
0 0 0
0 0 0
0 0 0
0 0 0
0 0 0
0 0 0
0 0 0
0 0 0
0 0 0
0 0 0
0 0 0
0 0 0
0 0 0
0 0 0
0 0 0
0 0 0
0 0 0
0 0 0
0 0 0
0 0 0
0 0 0
0 0 0
0 0 0
0 0 0
0 0 0
0 0 0
0 0 0
0 0 0
0 0 0
0 0 0
0 0 0
0 0 0
0 0 0
64 68 64
152 152 152
216 220 216
248 252 248
248 252 248
248 252 248
200 204 200
152 152 152
96 100 96
0 0 0
0 0 0
0 0 0
0 0 0
0 0 0
0 0 0
0 0 0
0 0 0
0 0 0
16 16 16
184 184 184
248 252 248
248 252 248
248 252 248
248 252 248
248 252 248
248 252 248
248 252 248
248 252 248
248 252 248
200 204 200
16 16 16
0 0 0
0 0 0
0 0 0
0 0 0
0 0 0
0 0 0
0 0 0
200 204 200
248 252 248
248 252 248
248 252 248
248 252 248
168 168 168
112 116 112
136 136 136
232 236 232
248 252 248
248 252 248
248 252 248
184 184 184
0 0 0
0 0 0
0 0 0
0 0 0
0 0 0
0 0 0
96 100 96
248 252 248
248 252 248
248 252 248
248 252 248
168 168 168
0 0 0
0 0 0
0 0 0
48 48 48
248 252 248
248 252 248
248 252 248
248 252 248
48 48 48
0 0 0
0 0 0
0 0 0
0 0 0
0 0 0
136 136 136
248 252 248
248 252 248
248 252 248
248 252 248
112 116 112
0 0 0
0 0 0
0 0 0
0 0 0
152 152 152
248 252 248
248 252 248
248 252 248
112 116 112
0 0 0
0 0 0
0 0 0
0 0 0
0 0 0
112 116 112
248 252 248
248 252 248
248 252 248
248 252 248
216 220 216
16 16 16
0 0 0
0 0 0
0 0 0
112 116 112
248 252 248
248 252 248
248 252 248
112 116 112
0 0 0
0 0 0
0 0 0
0 0 0
0 0 0
96 100 96
248 252 248
248 252 248
248 252 248
248 252 248
248 252 248
232 236 232
112 116 112
16 16 16
0 0 0
184 184 184
248 252 248
248 252 248
248 252 248
48 48 48
0 0 0
0 0 0
0 0 0
0 0 0
0 0 0
16 16 16
232 236 232
248 252 248
248 252 248
248 252 248
248 252 248
248 252 248
248 252 248
232 236 232
152 152 152
248 252 248
248 252 248
248 252 248
96 100 96
0 0 0
0 0 0
0 0 0
0 0 0
0 0 0
0 0 0
0 0 0
64 68 64
248 252 248
248 252 248
248 252 248
248 252 248
248 252 248
248 252 248
248 252 248
248 252 248
248 252 248
232 236 232
80 84 80
0 0 0
0 0 0
0 0 0
0 0 0
0 0 0
0 0 0
0 0 0
0 0 0
0 0 0
64 68 64
232 236 232
248 252 248
248 252 248
248 252 248
248 252 248
248 252 248
248 252 248
248 252 248
248 252 248
232 236 232
48 48 48
0 0 0
0 0 0
0 0 0
0 0 0
0 0 0
0 0 0
0 0 0
112 116 112
232 236 232
248 252 248
248 252 248
248 252 248
248 252 248
248 252 248
248 252 248
248 252 248
248 252 248
248 252 248
248 252 248
232 236 232
48 48 48
0 0 0
0 0 0
0 0 0
0 0 0
0 0 0
112 116 112
248 252 248
248 252 248
248 252 248
152 152 152
16 16 16
112 116 112
232 236 232
248 252 248
248 252 248
248 252 248
248 252 248
248 252 248
248 252 248
184 184 184
0 0 0
0 0 0
0 0 0
0 0 0
0 0 0
232 236 232
248 252 248
248 252 248
232 236 232
16 16 16
0 0 0
0 0 0
16 16 16
112 116 112
232 236 232
248 252 248
248 252 248
248 252 248
248 252 248
248 252 248
16 16 16
0 0 0
0 0 0
0 0 0
64 68 64
248 252 248
248 252 248
248 252 248
184 184 184
0 0 0
0 0 0
0 0 0
0 0 0
0 0 0
64 68 64
248 252 248
248 252 248
248 252 248
248 252 248
248 252 248
64 68 64
0 0 0
0 0 0
0 0 0
64 68 64
248 252 248
248 252 248
248 252 248
232 236 232
0 0 0
0 0 0
0 0 0
0 0 0
0 0 0
0 0 0
248 252 248
248 252 248
248 252 248
248 252 248
248 252 248
48 48 48
0 0 0
0 0 0
0 0 0
0 0 0
232 236 232
248 252 248
248 252 248
248 252 248
112 116 112
0 0 0
0 0 0
0 0 0
0 0 0
48 48 48
248 252 248
248 252 248
248 252 248
248 252 248
232 236 232
0 0 0
0 0 0
0 0 0
0 0 0
0 0 0
112 116 112
248 252 248
248 252 248
248 252 248
248 252 248
136 136 136
64 68 64
64 68 64
96 100 96
232 236 232
248 252 248
248 252 248
248 252 248
248 252 248
96 100 96
0 0 0
0 0 0
0 0 0
0 0 0
0 0 0
0 0 0
152 152 152
248 252 248
248 252 248
248 252 248
248 252 248
248 252 248
248 252 248
248 252 248
248 252 248
248 252 248
248 252 248
248 252 248
112 116 112
0 0 0
0 0 0
0 0 0
0 0 0
0 0 0
0 0 0
0 0 0
0 0 0
96 100 96
200 204 200
248 252 248
248 252 248
248 252 248
248 252 248
248 252 248
248 252 248
248 252 248
168 168 168
64 68 64
0 0 0
0 0 0
0 0 0
0 0 0
0 0 0
0 0 0
0 0 0
0 0 0
0 0 0
0 0 0
0 0 0
32 32 32
80 84 80
112 116 112
112 116 112
112 116 112
64 68 64
16 16 16
0 0 0
0 0 0
0 0 0
0 0 0
0 0 0
0 0 0
0 0 0
0 0 0
0 0 0
0 0 0
0 0 0
0 0 0
0 0 0
0 0 0
0 0 0
0 0 0
0 0 0
0 0 0
0 0 0
0 0 0
0 0 0
0 0 0
0 0 0
0 0 0
0 0 0
0 0 0
0 0 0
0 0 0
0 0 0
0 0 0
0 0 0
0 0 0
0 0 0
0 0 0
0 0 0
0 0 0
0 0 0
0 0 0
0 0 0
0 0 0
0 0 0
0 0 0
0 0 0
0 0 0
0 0 0
0 0 0
0 0 0
0 0 0
0 0 0
0 0 0
0 0 0
0 0 0
0 0 0
0 0 0
0 0 0
0 0 0
0 0 0
0 0 0
0 0 0
0 0 0
0 0 0
0 0 0
0 0 0
0 0 0
0 0 0
0 0 0
0 0 0
0 0 0
0 0 0
0 0 0
0 0 0
0 0 0
0 0 0
0 0 0
0 0 0
0 0 0
0 0 0
0 0 0
0 0 0
0 0 0
0 0 0
0 0 0
0 0 0
0 0 0
0 0 0
0 0 0
0 0 0
0 0 0
0 0 0
0 0 0
0 0 0
0 0 0
32 32 32
136 136 136
216 220 216
248 252 248
248 252 248
232 236 232
168 168 168
80 84 80
0 0 0
0 0 0
0 0 0
0 0 0
0 0 0
0 0 0
0 0 0
0 0 0
0 0 0
0 0 0
0 0 0
112 116 112
248 252 248
248 252 248
248 252 248
248 252 248
248 252 248
248 252 248
248 252 248
248 252 248
184 184 184
16 16 16
0 0 0
0 0 0
0 0 0
0 0 0
0 0 0
0 0 0
0 0 0
0 0 0
152 152 152
248 252 248
248 252 248
248 252 248
248 252 248
216 220 216
200 204 200
248 252 248
248 252 248
248 252 248
248 252 248
200 204 200
0 0 0
0 0 0
0 0 0
0 0 0
0 0 0
0 0 0
0 0 0
80 84 80
248 252 248
248 252 248
248 252 248
248 252 248
152 152 152
0 0 0
0 0 0
96 100 96
248 252 248
248 252 248
248 252 248
248 252 248
112 116 112
0 0 0
0 0 0
0 0 0
0 0 0
0 0 0
0 0 0
200 204 200
248 252 248
248 252 248
248 252 248
248 252 248
16 16 16
0 0 0
0 0 0
0 0 0
184 184 184
248 252 248
248 252 248
248 252 248
232 236 232
16 16 16
0 0 0
0 0 0
0 0 0
0 0 0
32 32 32
248 252 248
248 252 248
248 252 248
248 252 248
200 204 200
0 0 0
0 0 0
0 0 0
0 0 0
96 100 96
248 252 248
248 252 248
248 252 248
248 252 248
80 84 80
0 0 0
0 0 0
0 0 0
0 0 0
64 68 64
248 252 248
248 252 248
248 252 248
248 252 248
184 184 184
0 0 0
0 0 0
0 0 0
0 0 0
64 68 64
248 252 248
248 252 248
248 252 248
248 252 248
112 116 112
0 0 0
0 0 0
0 0 0
0 0 0
48 48 48
248 252 248
248 252 248
248 252 248
248 252 248
184 184 184
0 0 0
0 0 0
0 0 0
0 0 0
64 68 64
248 252 248
248 252 248
248 252 248
248 252 248
168 168 168
0 0 0
0 0 0
0 0 0
0 0 0
0 0 0
248 252 248
248 252 248
248 252 248
248 252 248
248 252 248
16 16 16
0 0 0
0 0 0
0 0 0
64 68 64
248 252 248
248 252 248
248 252 248
248 252 248
184 184 184
0 0 0
0 0 0
0 0 0
0 0 0
0 0 0
168 168 168
248 252 248
248 252 248
248 252 248
248 252 248
112 116 112
0 0 0
0 0 0
0 0 0
64 68 64
248 252 248
248 252 248
248 252 248
248 252 248
168 168 168
0 0 0
0 0 0
0 0 0
0 0 0
0 0 0
64 68 64
248 252 248
248 252 248
248 252 248
248 252 248
248 252 248
184 184 184
112 116 112
80 84 80
112 116 112
248 252 248
248 252 248
248 252 248
248 252 248
112 116 112
0 0 0
0 0 0
0 0 0
0 0 0
0 0 0
0 0 0
96 100 96
248 252 248
248 252 248
248 252 248
248 252 248
248 252 248
200 204 200
0 0 0
184 184 184
248 252 248
248 252 248
248 252 248
248 252 248
48 48 48
0 0 0
0 0 0
0 0 0
0 0 0
0 0 0
0 0 0
0 0 0
64 68 64
168 168 168
232 236 232
248 252 248
232 236 232
32 32 32
32 32 32
248 252 248
248 252 248
248 252 248
248 252 248
216 220 216
0 0 0
0 0 0
0 0 0
0 0 0
0 0 0
0 0 0
0 0 0
0 0 0
0 0 0
0 0 0
0 0 0
32 32 32
32 32 32
0 0 0
152 152 152
248 252 248
248 252 248
248 252 248
248 252 248
80 84 80
0 0 0
0 0 0
0 0 0
0 0 0
0 0 0
0 0 0
0 0 0
0 0 0
0 0 0
0 0 0
0 0 0
0 0 0
0 0 0
96 100 96
248 252 248
248 252 248
248 252 248
248 252 248
152 152 152
0 0 0
0 0 0
0 0 0
0 0 0
0 0 0
0 0 0
0 0 0
0 0 0
0 0 0
0 0 0
0 0 0
0 0 0
0 0 0
96 100 96
248 252 248
248 252 248
248 252 248
248 252 248
200 204 200
16 16 16
0 0 0
0 0 0
0 0 0
0 0 0
0 0 0
0 0 0
0 0 0
0 0 0
0 0 0
0 0 0
0 0 0
48 48 48
168 168 168
248 252 248
248 252 248
248 252 248
248 252 248
168 168 168
16 16 16
0 0 0
0 0 0
0 0 0
0 0 0
0 0 0
0 0 0
0 0 0
0 0 0
0 0 0
0 0 0
112 116 112
200 204 200
248 252 248
248 252 248
248 252 248
248 252 248
248 252 248
112 116 112
0 0 0
0 0 0
0 0 0
0 0 0
0 0 0
0 0 0
0 0 0
0 0 0
0 0 0
0 0 0
0 0 0
16 16 16
248 252 248
248 252 248
248 252 248
248 252 248
248 252 248
152 152 152
32 32 32
0 0 0
0 0 0
0 0 0
0 0 0
0 0 0
0 0 0
0 0 0
0 0 0
0 0 0
0 0 0
0 0 0
0 0 0
112 116 112
232 236 232
184 184 184
152 152 152
112 116 112
32 32 32
0 0 0
0 0 0
0 0 0
0 0 0
0 0 0
0 0 0
0 0 0
0 0 0
0 0 0
0 0 0
0 0 0
0 0 0
0 0 0
0 0 0
0 0 0
0 0 0
0 0 0
0 0 0
0 0 0
0 0 0
0 0 0
0 0 0
0 0 0
0 0 0
0 0 0
0 0 0
0 0 0
0 0 0
0 0 0
0 0 0
0 0 0
0 0 0
0 0 0
0 0 0
0 0 0
0 0 0
0 0 0
0 0 0
0 0 0
0 0 0
0 0 0
0 0 0
0 0 0
0 0 0
0 0 0
0 0 0
0 0 0
0 0 0
0 0 0
0 0 0
