P3
10 130
255
0 0 0
0 0 0
0 0 0
0 0 0
0 0 0
0 0 0
0 0 0
0 0 0
0 0 0
0 0 0
0 0 0
0 0 0
0 0 0
32 32 32
112 116 112
96 100 96
32 32 32
0 0 0
0 0 0
0 0 0
0 0 0
0 0 0
48 48 48
232 236 232
248 252 248
248 252 248
232 236 232
96 100 96
0 0 0
0 0 0
0 0 0
16 16 16
232 236 232
248 252 248
112 116 112
112 116 112
248 252 248
232 236 232
16 16 16
0 0 0
0 0 0
96 100 96
248 252 248
232 236 232
0 0 0
0 0 0
216 220 216
248 252 248
112 116 112
0 0 0
0 0 0
168 168 168
248 252 248
184 184 184
0 0 0
0 0 0
184 184 184
248 252 248
168 168 168
0 0 0
0 0 0
184 184 184
248 252 248
184 184 184
0 0 0
0 0 0
184 184 184
248 252 248
184 184 184
0 0 0
0 0 0
152 152 152
248 252 248
184 184 184
0 0 0
0 0 0
184 184 184
248 252 248
152 152 152
0 0 0
0 0 0
96 100 96
248 252 248
232 236 232
0 0 0
16 16 16
248 252 248
248 252 248
96 100 96
0 0 0
0 0 0
16 16 16
216 220 216
248 252 248
168 168 168
168 168 168
248 252 248
200 204 200
0 0 0
0 0 0
0 0 0
0 0 0
48 48 48
200 204 200
248 252 248
248 252 248
200 204 200
32 32 32
0 0 0
0 0 0
0 0 0
0 0 0
0 0 0
0 0 0
48 48 48
48 48 48
0 0 0
0 0 0
0 0 0
0 0 0
0 0 0
0 0 0
0 0 0
0 0 0
0 0 0
0 0 0
0 0 0
0 0 0
0 0 0
0 0 0
0 0 0
0 0 0
0 0 0
0 0 0
0 0 0
0 0 0
0 0 0
0 0 0
0 0 0
0 0 0
0 0 0
0 0 0
0 0 0
0 0 0
0 0 0
16 16 16
80 84 80
0 0 0
0 0 0
0 0 0
0 0 0
0 0 0
0 0 0
0 0 0
48 48 48
200 204 200
112 116 112
0 0 0
0 0 0
0 0 0
0 0 0
0 0 0
32 32 32
112 116 112
248 252 248
248 252 248
112 116 112
0 0 0
0 0 0
0 0 0
0 0 0
0 0 0
0 0 0
0 0 0
248 252 248
248 252 248
112 116 112
0 0 0
0 0 0
0 0 0
0 0 0
0 0 0
0 0 0
0 0 0
248 252 248
248 252 248
112 116 112
0 0 0
0 0 0
0 0 0
0 0 0
0 0 0
0 0 0
0 0 0
248 252 248
248 252 248
112 116 112
0 0 0
0 0 0
0 0 0
0 0 0
0 0 0
0 0 0
0 0 0
248 252 248
248 252 248
112 116 112
0 0 0
0 0 0
0 0 0
0 0 0
0 0 0
0 0 0
0 0 0
248 252 248
248 252 248
112 116 112
0 0 0
0 0 0
0 0 0
0 0 0
0 0 0
0 0 0
0 0 0
248 252 248
248 252 248
112 116 112
0 0 0
0 0 0
0 0 0
0 0 0
0 0 0
0 0 0
96 100 96
248 252 248
248 252 248
168 168 168
16 16 16
0 0 0
0 0 0
0 0 0
88 88 88
144 144 144
240 240 240
248 252 248
248 252 248
232 232 232
144 144 144
88 88 88
0 0 0
0 0 0
0 0 0
0 0 0
0 0 0
0 0 0
0 0 0
0 0 0
0 0 0
0 0 0
0 0 0
0 0 0
0 0 0
0 0 0
0 0 0
0 0 0
0 0 0
0 0 0
0 0 0
0 0 0
0 0 0
0 0 0
0 0 0
80 84 80
152 152 152
184 184 184
168 168 168
80 84 80
0 0 0
0 0 0
0 0 0
0 0 0
0 0 0
232 236 232
200 204 200
216 220 216
248 252 248
248 252 248
112 116 112
0 0 0
0 0 0
0 0 0
32 32 32
48 48 48
0 0 0
16 16 16
248 252 248
248 252 248
184 184 184
0 0 0
0 0 0
0 0 0
0 0 0
0 0 0
0 0 0
64 68 64
248 252 248
248 252 248
168 168 168
0 0 0
0 0 0
0 0 0
0 0 0
0 0 0
0 0 0
152 152 152
248 252 248
248 252 248
64 68 64
0 0 0
0 0 0
0 0 0
0 0 0
0 0 0
64 68 64
248 252 248
248 252 248
184 184 184
0 0 0
0 0 0
0 0 0
0 0 0
0 0 0
0 0 0
200 204 200
248 252 248
232 236 232
32 32 32
0 0 0
0 0 0
0 0 0
0 0 0
0 0 0
96 100 96
248 252 248
248 252 248
112 116 112
0 0 0
0 0 0
0 0 0
0 0 0
0 0 0
16 16 16
232 236 232
248 252 248
248 252 248
112 116 112
112 116 112
152 152 152
80 84 80
0 0 0
0 0 0
136 136 136
248 252 248
248 252 248
248 252 248
248 252 248
248 252 248
248 252 248
16 16 16
0 0 0
0 0 0
88 88 88
248 252 248
248 252 248
248 252 248
248 252 248
248 252 248
248 252 248
0 0 0
0 0 0
0 0 0
0 0 0
0 0 0
0 0 0
0 0 0
0 0 0
0 0 0
0 0 0
0 0 0
0 0 0
0 0 0
0 0 0
0 0 0
0 0 0
0 0 0
0 0 0
0 0 0
0 0 0
0 0 0
0 0 0
0 0 0
0 0 0
32 32 32
112 116 112
112 116 112
112 116 112
32 32 32
0 0 0
0 0 0
0 0 0
0 0 0
0 0 0
200 204 200
216 220 216
232 236 232
248 252 248
248 252 248
96 100 96
0 0 0
0 0 0
0 0 0
0 0 0
32 32 32
0 0 0
16 16 16
216 220 216
248 252 248
216 220 216
0 0 0
0 0 0
0 0 0
0 0 0
0 0 0
0 0 0
16 16 16
216 220 216
248 252 248
168 168 168
0 0 0
0 0 0
0 0 0
0 0 0
0 0 0
184 184 184
216 220 216
248 252 248
200 204 200
16 16 16
0 0 0
0 0 0
0 0 0
0 0 0
0 0 0
112 116 112
136 136 136
232 236 232
248 252 248
200 204 200
0 0 0
0 0 0
0 0 0
0 0 0
0 0 0
0 0 0
0 0 0
80 84 80
248 252 248
248 252 248
96 100 96
0 0 0
0 0 0
0 0 0
0 0 0
0 0 0
0 0 0
80 84 80
248 252 248
248 252 248
112 116 112
0 0 0
0 0 0
48 48 48
112 116 112
64 68 64
96 100 96
232 236 232
248 252 248
232 236 232
16 16 16
0 0 0
0 0 0
0 0 0
248 252 248
248 252 248
248 252 248
248 252 248
168 168 168
32 32 32
0 0 0
0 0 0
0 0 0
0 0 0
0 0 0
32 32 32
48 48 48
0 0 0
0 0 0
0 0 0
0 0 0
0 0 0
0 0 0
0 0 0
0 0 0
0 0 0
0 0 0
0 0 0
0 0 0
0 0 0
0 0 0
0 0 0
0 0 0
0 0 0
0 0 0
0 0 0
0 0 0
0 0 0
0 0 0
0 0 0
0 0 0
0 0 0
0 0 0
0 0 0
0 0 0
0 0 0
64 68 64
112 116 112
112 116 112
64 68 64
0 0 0
0 0 0
0 0 0
0 0 0
0 0 0
0 0 0
216 220 216
248 252 248
248 252 248
112 116 112
0 0 0
0 0 0
0 0 0
0 0 0
0 0 0
112 116 112
216 220 216
248 252 248
248 252 248
112 116 112
0 0 0
0 0 0
0 0 0
0 0 0
16 16 16
232 236 232
96 100 96
248 252 248
248 252 248
112 116 112
0 0 0
0 0 0
0 0 0
0 0 0
112 116 112
216 220 216
0 0 0
248 252 248
248 252 248
112 116 112
0 0 0
0 0 0
0 0 0
32 32 32
232 236 232
96 100 96
0 0 0
248 252 248
248 252 248
112 116 112
0 0 0
0 0 0
0 0 0
152 152 152
232 236 232
64 68 64
64 68 64
248 252 248
248 252 248
152 152 152
96 100 96
16 16 16
48 48 48
248 252 248
248 252 248
248 252 248
248 252 248
248 252 248
248 252 248
248 252 248
184 184 184
0 0 0
0 0 0
0 0 0
0 0 0
0 0 0
0 0 0
248 252 248
248 252 248
112 116 112
0 0 0
0 0 0
0 0 0
0 0 0
0 0 0
0 0 0
64 68 64
248 252 248
248 252 248
168 168 168
0 0 0
0 0 0
0 0 0
0 0 0
0 0 0
0 0 0
88 88 88
248 252 248
248 252 248
184 184 184
0 0 0
0 0 0
0 0 0
0 0 0
0 0 0
0 0 0
0 0 0
0 0 0
0 0 0
0 0 0
0 0 0
0 0 0
0 0 0
0 0 0
0 0 0
0 0 0
0 0 0
0 0 0
0 0 0
0 0 0
0 0 0
0 0 0
0 0 0
0 0 0
112 116 112
112 116 112
112 116 112
112 116 112
112 116 112
96 100 96
0 0 0
0 0 0
0 0 0
0 0 0
248 252 248
248 252 248
248 252 248
248 252 248
248 252 248
184 184 184
0 0 0
0 0 0
0 0 0
0 0 0
248 252 248
248 252 248
64 68 64
0 0 0
0 0 0
64 68 64
0 0 0
0 0 0
0 0 0
0 0 0
248 252 248
248 252 248
112 116 112
64 68 64
0 0 0
0 0 0
0 0 0
0 0 0
0 0 0
0 0 0
248 252 248
248 252 248
248 252 248
248 252 248
232 236 232
96 100 96
0 0 0
0 0 0
0 0 0
0 0 0
48 48 48
0 0 0
80 84 80
200 204 200
248 252 248
248 252 248
32 32 32
0 0 0
0 0 0
0 0 0
0 0 0
0 0 0
0 0 0
80 84 80
248 252 248
248 252 248
112 116 112
0 0 0
0 0 0
0 0 0
0 0 0
0 0 0
0 0 0
80 84 80
248 252 248
248 252 248
96 100 96
0 0 0
0 0 0
48 48 48
96 100 96
32 32 32
48 48 48
200 204 200
248 252 248
216 220 216
16 16 16
0 0 0
0 0 0
16 16 16
248 252 248
248 252 248
248 252 248
248 252 248
184 184 184
48 48 48
0 0 0
0 0 0
0 0 0
0 0 0
0 0 0
16 16 16
64 68 64
32 32 32
0 0 0
0 0 0
0 0 0
0 0 0
0 0 0
0 0 0
0 0 0
0 0 0
0 0 0
0 0 0
0 0 0
0 0 0
0 0 0
0 0 0
0 0 0
0 0 0
0 0 0
0 0 0
0 0 0
0 0 0
0 0 0
0 0 0
0 0 0
0 0 0
0 0 0
0 0 0
0 0 0
0 0 0
0 0 0
80 84 80
136 136 136
152 152 152
0 0 0
0 0 0
0 0 0
0 0 0
0 0 0
48 48 48
216 220 216
248 252 248
200 204 200
64 68 64
0 0 0
0 0 0
0 0 0
0 0 0
64 68 64
232 236 232
248 252 248
96 100 96
0 0 0
0 0 0
0 0 0
0 0 0
0 0 0
16 16 16
232 236 232
248 252 248
112 116 112
48 48 48
48 48 48
0 0 0
0 0 0
0 0 0
0 0 0
112 116 112
248 252 248
248 252 248
80 84 80
248 252 248
248 252 248
200 204 200
16 16 16
0 0 0
0 0 0
184 184 184
248 252 248
184 184 184
16 16 16
48 48 48
248 252 248
248 252 248
112 116 112
0 0 0
0 0 0
184 184 184
248 252 248
184 184 184
0 0 0
0 0 0
184 184 184
248 252 248
184 184 184
0 0 0
0 0 0
112 116 112
248 252 248
232 236 232
0 0 0
0 0 0
200 204 200
248 252 248
152 152 152
0 0 0
0 0 0
32 32 32
232 236 232
248 252 248
112 116 112
96 100 96
248 252 248
248 252 248
64 68 64
0 0 0
0 0 0
0 0 0
80 84 80
232 236 232
248 252 248
248 252 248
232 236 232
96 100 96
0 0 0
0 0 0
0 0 0
0 0 0
0 0 0
0 0 0
64 68 64
64 68 64
0 0 0
0 0 0
0 0 0
0 0 0
0 0 0
0 0 0
0 0 0
0 0 0
0 0 0
0 0 0
0 0 0
0 0 0
0 0 0
0 0 0
0 0 0
0 0 0
0 0 0
0 0 0
0 0 0
0 0 0
0 0 0
0 0 0
0 0 0
0 0 0
0 0 0
0 0 0
16 16 16
64 68 64
64 68 64
64 68 64
64 68 64
64 68 64
0 0 0
0 0 0
0 0 0
0 0 0
136 136 136
248 252 248
248 252 248
248 252 248
248 252 248
216 220 216
0 0 0
0 0 0
0 0 0
0 0 0
80 84 80
16 16 16
0 0 0
152 152 152
248 252 248
136 136 136
0 0 0
0 0 0
0 0 0
0 0 0
0 0 0
0 0 0
0 0 0
216 220 216
248 252 248
48 48 48
0 0 0
0 0 0
0 0 0
0 0 0
0 0 0
0 0 0
48 48 48
248 252 248
232 236 232
0 0 0
0 0 0
0 0 0
0 0 0
0 0 0
0 0 0
0 0 0
136 136 136
248 252 248
152 152 152
0 0 0
0 0 0
0 0 0
0 0 0
0 0 0
0 0 0
0 0 0
216 220 216
248 252 248
80 84 80
0 0 0
0 0 0
0 0 0
0 0 0
0 0 0
0 0 0
48 48 48
248 252 248
248 252 248
16 16 16
0 0 0
0 0 0
0 0 0
0 0 0
0 0 0
0 0 0
136 136 136
248 252 248
168 168 168
0 0 0
0 0 0
0 0 0
0 0 0
0 0 0
0 0 0
0 0 0
216 220 216
248 252 248
168 168 168
0 0 0
0 0 0
0 0 0
0 0 0
0 0 0
0 0 0
0 0 0
240 240 240
144 144 144
0 0 0
0 0 0
0 0 0
0 0 0
0 0 0
0 0 0
0 0 0
0 0 0
0 0 0
0 0 0
0 0 0
0 0 0
0 0 0
0 0 0
0 0 0
0 0 0
0 0 0
0 0 0
0 0 0
0 0 0
0 0 0
0 0 0
0 0 0
0 0 0
0 0 0
0 0 0
0 0 0
0 0 0
80 84 80
112 116 112
112 116 112
80 84 80
0 0 0
0 0 0
0 0 0
0 0 0
16 16 16
200 204 200
248 252 248
216 220 216
200 204 200
248 252 248
200 204 200
16 16 16
0 0 0
0 0 0
112 116 112
248 252 248
248 252 248
16 16 16
0 0 0
184 184 184
248 252 248
112 116 112
0 0 0
0 0 0
112 116 112
248 252 248
248 252 248
112 116 112
16 16 16
136 136 136
248 252 248
112 116 112
0 0 0
0 0 0
32 32 32
232 236 232
248 252 248
248 252 248
232 236 232
232 236 232
152 152 152
0 0 0
0 0 0
0 0 0
0 0 0
152 152 152
248 252 248
248 252 248
248 252 248
248 252 248
232 236 232
48 48 48
0 0 0
0 0 0
152 152 152
248 252 248
112 116 112
64 68 64
184 184 184
248 252 248
248 252 248
168 168 168
0 0 0
0 0 0
184 184 184
248 252 248
64 68 64
0 0 0
0 0 0
200 204 200
248 252 248
184 184 184
0 0 0
0 0 0
152 152 152
248 252 248
184 184 184
32 32 32
64 68 64
232 236 232
248 252 248
136 136 136
0 0 0
0 0 0
16 16 16
152 152 152
248 252 248
248 252 248
248 252 248
248 252 248
136 136 136
16 16 16
0 0 0
0 0 0
0 0 0
0 0 0
16 16 16
64 68 64
64 68 64
0 0 0
0 0 0
0 0 0
0 0 0
0 0 0
0 0 0
0 0 0
0 0 0
0 0 0
0 0 0
0 0 0
0 0 0
0 0 0
0 0 0
0 0 0
0 0 0
0 0 0
0 0 0
0 0 0
0 0 0
0 0 0
0 0 0
0 0 0
0 0 0
0 0 0
0 0 0
0 0 0
48 48 48
112 116 112
112 116 112
48 48 48
0 0 0
0 0 0
0 0 0
0 0 0
0 0 0
152 152 152
248 252 248
248 252 248
248 252 248
248 252 248
152 152 152
0 0 0
0 0 0
0 0 0
96 100 96
248 252 248
232 236 232
16 16 16
48 48 48
248 252 248
248 252 248
64 68 64
0 0 0
0 0 0
184 184 184
248 252 248
184 184 184
0 0 0
0 0 0
184 184 184
248 252 248
136 136 136
0 0 0
0 0 0
168 168 168
248 252 248
200 204 200
0 0 0
0 0 0
184 184 184
248 252 248
184 184 184
0 0 0
0 0 0
96 100 96
248 252 248
248 252 248
112 116 112
48 48 48
200 204 200
248 252 248
168 168 168
0 0 0
0 0 0
0 0 0
112 116 112
232 236 232
232 236 232
48 48 48
248 252 248
248 252 248
96 100 96
0 0 0
0 0 0
0 0 0
0 0 0
0 0 0
0 0 0
152 152 152
248 252 248
200 204 200
0 0 0
0 0 0
0 0 0
0 0 0
0 0 0
16 16 16
152 152 152
248 252 248
216 220 216
32 32 32
0 0 0
0 0 0
0 0 0
0 0 0
112 116 112
248 252 248
248 252 248
152 152 152
16 16 16
0 0 0
0 0 0
0 0 0
0 0 0
0 0 0
112 116 112
80 84 80
16 16 16
0 0 0
0 0 0
0 0 0
0 0 0
0 0 0
0 0 0
0 0 0
0 0 0
0 0 0
0 0 0
0 0 0
0 0 0
0 0 0
0 0 0
0 0 0
